<svg width="102" height="102" viewBox="0 0 102 102" fill="none" xmlns="http://www.w3.org/2000/svg">
<path d="M51 0C52.2681 0 53.4842 0.503737 54.3809 1.4004C55.2775 2.29705 55.7812 3.51318 55.7812 4.78125V97.2188C55.7812 98.4868 55.2775 99.7029 54.3809 100.6C53.4842 101.496 52.2681 102 51 102C49.7319 102 48.5158 101.496 47.6191 100.6C46.7225 99.7029 46.2188 98.4868 46.2188 97.2188V4.78125C46.2188 3.51318 46.7225 2.29705 47.6191 1.4004C48.5158 0.503737 49.7319 0 51 0ZM74.9062 19.125C76.1743 19.125 77.3904 19.6287 78.2871 20.5254C79.1838 21.4221 79.6875 22.6382 79.6875 23.9062V78.0938C79.6875 79.3618 79.1838 80.5779 78.2871 81.4746C77.3904 82.3713 76.1743 82.875 74.9062 82.875C73.6382 82.875 72.4221 82.3713 71.5254 81.4746C70.6287 80.5779 70.125 79.3618 70.125 78.0938V23.9062C70.125 22.6382 70.6287 21.4221 71.5254 20.5254C72.4221 19.6287 73.6382 19.125 74.9062 19.125ZM31.875 23.9062C31.875 22.6382 31.3713 21.4221 30.4746 20.5254C29.5779 19.6287 28.3618 19.125 27.0938 19.125C25.8257 19.125 24.6096 19.6287 23.7129 20.5254C22.8162 21.4221 22.3125 22.6382 22.3125 23.9062V78.0938C22.3125 79.3618 22.8162 80.5779 23.7129 81.4746C24.6096 82.3713 25.8257 82.875 27.0938 82.875C28.3618 82.875 29.5779 82.3713 30.4746 81.4746C31.3713 80.5779 31.875 79.3618 31.875 78.0938V23.9062ZM97.2188 38.25C98.4868 38.25 99.7029 38.7537 100.6 39.6504C101.496 40.5471 102 41.7632 102 43.0312V58.9688C102 60.2368 101.496 61.4529 100.6 62.3496C99.7029 63.2463 98.4868 63.75 97.2188 63.75C95.9507 63.75 94.7346 63.2463 93.8379 62.3496C92.9412 61.4529 92.4375 60.2368 92.4375 58.9688V43.0312C92.4375 41.7632 92.9412 40.5471 93.8379 39.6504C94.7346 38.7537 95.9507 38.25 97.2188 38.25V38.25ZM9.5625 43.0312C9.5625 41.7632 9.05876 40.5471 8.1621 39.6504C7.26545 38.7537 6.04932 38.25 4.78125 38.25C3.51318 38.25 2.29705 38.7537 1.4004 39.6504C0.503737 40.5471 2.67225e-08 41.7632 0 43.0312V58.9688C2.67225e-08 60.2368 0.503737 61.4529 1.4004 62.3496C2.29705 63.2463 3.51318 63.75 4.78125 63.75C6.04932 63.75 7.26545 63.2463 8.1621 62.3496C9.05876 61.4529 9.5625 60.2368 9.5625 58.9688V43.0312Z" fill="#46237A"/>
</svg>
